<?xml version="1.0" encoding="utf-8"?>
<!-- Generator: Adobe Illustrator 18.1.1, SVG Export Plug-In . SVG Version: 6.00 Build 0)  -->
<!DOCTYPE svg PUBLIC "-//W3C//DTD SVG 1.1//EN" "http://www.w3.org/Graphics/SVG/1.1/DTD/svg11.dtd">
<svg version="1.1"
	 id="svg4123" xmlns:cc="http://web.resource.org/cc/" xmlns:svg="http://www.w3.org/2000/svg" xmlns:ns1="http://sozi.baierouge.fr" xmlns:rdf="http://www.w3.org/1999/02/22-rdf-syntax-ns#" xmlns:inkscape="http://www.inkscape.org/namespaces/inkscape" xmlns:dc="http://purl.org/dc/elements/1.1/" xmlns:sodipodi="http://sodipodi.sourceforge.net/DTD/sodipodi-0.dtd" sodipodi:docbase="/home/marco/Desktop" inkscape:version="0.45.1" inkscape:output_extension="org.inkscape.output.svg.inkscape" sodipodi:version="0.32" sodipodi:docname="disegno.svg"
	 xmlns="http://www.w3.org/2000/svg" xmlns:xlink="http://www.w3.org/1999/xlink" x="0px" y="0px" viewBox="172.4 -14.3 27.3 48.2"
	 enable-background="new 172.4 -14.3 27.3 48.2" xml:space="preserve">
<sodipodi:namedview  bordercolor="#666666" inkscape:cy="520" id="base" borderopacity="1.0" pagecolor="#ffffff" inkscape:zoom="0.35" inkscape:cx="375" inkscape:document-units="px" inkscape:pageopacity="0.0" inkscape:window-x="4" inkscape:window-width="791" inkscape:window-height="597" inkscape:window-y="45" inkscape:current-layer="layer1" inkscape:pageshadow="2">
	</sodipodi:namedview>
<path fill="#B56726" d="M184.5-10.6c0.3-0.6,0.7-1.2,1.3-1.4c0.6-0.1,1.2,0.1,1.8,0.5c2.3,1.6,3.2,4.6,3.7,7.3
	c1.1,5.8,1,11.7-0.5,17.4s-4.3,11-8.3,15.3c-1.3,1.4-2.8,2.7-4.6,3.3c-0.6,0.2-1.3,0.4-2,0.2c-0.7-0.2-1.2-0.8-1.3-1.4
	c0-0.6,0.3-1.1,0.6-1.6c2.4-3.7,5.3-7.3,7.2-11.3c0.5-1,0.7-2.1,1.2-3.1c0.4-0.9,0.9-1.7,1.1-2.6c0.6-2.2,0.8-4.5,1-6.8
	c0.2-1.8,0.3-3.7,0.4-5.5c0.1-1,0.2-1.9-0.2-2.8c-0.3-0.8-0.5-1.5-0.9-2.3c-0.3-0.5-0.4-1.1-0.5-1.7C184-8.3,184.2-9.4,184.5-10.6z"
	/>
<path fill="#894212" d="M187-7.9c-0.7-1.3-1.4-2.2-2.4-3.2c-0.6,0.8-0.6,2.1-0.5,3c0.1,1.1,0.5,2.1,0.7,3.1c0.6,2.1,1.1,4.2,1,6.4
	c0,1.4-0.3,2.7-0.6,3.9c-0.4,1.7-0.6,3.5-1,5.2c-0.4,2.3-1.3,4.2-2,6.3c-0.3,1-0.8,2-1.1,3.1c-0.3,0.9-1.1,1.6-1.7,2.5
	c-1.6,1.9-2.9,4-3.9,6.2c-0.2,0.4-0.4,0.8-0.5,1.3c0,0.5,0.1,1,0.4,1.3c0.3,0.3,0.9,0.3,1.3,0c0.2-0.2,0.2-0.5,0.4-0.6
	c0.1-0.2,0.4-0.2,0.6-0.3c0.1,0,0.2-0.1,0.3-0.1c0.2-0.2,0.4-0.7,0.1-0.8c0.4-0.4,1.2-0.1,1.6-0.5c0.2-0.2,0.1-0.6,0.1-0.8
	c0-0.3,0.1-0.7,0.3-0.7c-0.4-0.1-0.7-0.3-1-0.6c0.4,0,0.6-0.2,0.8-0.6c0.1-0.3-0.1-0.7-0.3-0.8c0.3-0.3,0.5-0.6,0.9-0.8
	c0.5-0.1,1.1-0.2,1.3-0.7c-0.2-0.1-0.3-0.3-0.5-0.4c0.9-0.5,1.8-1,2.7-1.4c-0.6-0.3-1.3-0.5-1.9-0.8c0.2-0.2,0.4-0.4,0.6-0.5
	c-0.2,0-0.3-0.2-0.2-0.3s0.3-0.2,0.4-0.3c1-0.3,1.9-1,2.5-1.8c-0.5,0.1-1.2,0-1.7-0.2c0.8-0.4,1.5-0.9,2.2-1.5
	c-0.4-0.2-0.7-0.4-1.1-0.6c0.7-0.8,1.6-1.5,2.3-2.3c-0.7-0.1-1.5-0.3-2.2-0.4c0.2-0.5,0.6-0.9,1.1-1.1c-0.2-0.5,0.1-1.2,0.7-1.4
	c-0.4,0-0.1-0.6,0.1-0.9c0.5-0.5,1-1,1.5-1.4c-0.6,0-1.2-0.2-1.7-0.4c0.4-0.6,0.8-1.3,1.3-1.8c-0.3-0.3-0.5-0.6-0.9-0.8
	c0.5-0.5,0.9-1.4,0.3-1.8c0.3-0.9,1.4-1.4,1.3-2.3c-0.1-1-1.6-1.2-2-2.1c-0.5-1,0.6-2.1,0.5-3.1c-0.2,0-0.3-0.1-0.5-0.1
	c-0.1-1.1,0.2-2.2,0.8-3.1C187.3-7.5,187.1-7.7,187-7.9z"/>
<path fill="#6D1C12" d="M176,27.8c0-0.1,0.1-0.2,0.2-0.2c0.1,0,0.2,0.1,0.3,0.1c0.5,0.4,1.1,0.8,1.7,1c0.3,0.1,0.6,0.2,1,0.2
	c0.6,0.1,1.2,0.2,1.8,0.3c-0.2,0.4-0.7,0.7-1.1,0.6C179.4,29.9,175.8,28.7,176,27.8z"/>
<path fill="#6D1C12" d="M178.8,23.8c0-0.1,0.1-0.2,0.2-0.2c0.1,0,0.2,0.1,0.3,0.1c0.5,0.4,1.1,0.8,1.7,1c0.3,0.1,0.6,0.2,1,0.2
	c0.6,0.1,1.2,0.2,1.8,0.3c-0.2,0.4-0.7,0.7-1.1,0.6C182.2,25.9,178.7,24.6,178.8,23.8z"/>
<path fill="#6D1C12" d="M181.6,20.2c0-0.1,0.1-0.2,0.2-0.2c0.1,0,0.2,0.1,0.3,0.1c0.6,0.3,1.3,0.6,1.9,0.6c0.4,0,0.7,0,1,0
	c0.6,0,1.2-0.1,1.8-0.1c-0.1,0.4-0.4,0.7-0.9,0.8C185.3,21.5,181.6,21.1,181.6,20.2z"/>
<path fill="#6D1C12" d="M183.5,15.6c0-0.1,0.1-0.2,0.2-0.2c0.1,0,0.2,0.1,0.3,0.1c0.6,0.3,1.3,0.6,1.9,0.6c0.4,0,0.7,0,1,0
	c0.6,0,1.2-0.1,1.8-0.1c-0.1,0.4-0.4,0.7-0.9,0.8C187.2,16.9,183.4,16.5,183.5,15.6z"/>
<path fill="#6D1C12" d="M185.2,11.8c0-0.1,0.1-0.2,0.1-0.3c0.1,0,0.2,0,0.3,0c0.7,0.1,1.4,0.1,2-0.1c0.3-0.1,0.6-0.2,0.9-0.4
	c0.6-0.2,1.1-0.5,1.7-0.7c0.1,0.4-0.2,0.9-0.6,1.1C189.1,11.8,185.4,12.6,185.2,11.8z"/>
<path fill="#6D1C12" d="M185.7,6.4c0-0.1,0.1-0.2,0.1-0.3c0.1,0,0.2,0,0.3,0c0.7,0.1,1.4,0.1,2-0.1c0.3-0.1,0.6-0.2,0.9-0.4
	c0.6-0.2,1.1-0.5,1.7-0.7c0.1,0.4-0.2,0.9-0.6,1.1C189.6,6.5,186,7.2,185.7,6.4z"/>
<path fill="#6D1C12" d="M186.5,1.8c-0.1,0,0-0.2,0.1-0.3s0.2,0,0.3,0c0.7,0,1.4-0.2,1.9-0.5c0.3-0.1,0.6-0.3,0.8-0.5
	c0.5-0.3,1-0.7,1.5-1.1c0.2,0.4,0,0.9-0.4,1.2C190.3,1,186.9,2.6,186.5,1.8z"/>
<path fill="#6D1C12" d="M185.7-2.5c-0.1,0,0-0.2,0.1-0.3c0.1-0.1,0.2,0,0.3,0c0.7,0,1.4-0.2,1.9-0.5c0.3-0.1,0.6-0.3,0.8-0.5
	c0.5-0.3,1-0.7,1.5-1.1c0.2,0.4,0,0.9-0.4,1.2C189.5-3.3,186.1-1.7,185.7-2.5z"/>
<path fill="#6D1C12" d="M184.6-6.6c-0.1,0,0-0.2,0.1-0.3c0.1-0.1,0.2,0,0.3,0c0.7,0,1.4-0.2,1.9-0.5c0.3-0.1,0.6-0.3,0.8-0.5
	c0.5-0.3,1-0.7,1.5-1.1c0.2,0.4,0,0.9-0.4,1.2C188.5-7.4,185.1-5.8,184.6-6.6z"/>
</svg>
