<?xml version="1.0" encoding="utf-8"?>
<!-- Generator: Adobe Illustrator 18.1.1, SVG Export Plug-In . SVG Version: 6.00 Build 0)  -->
<!DOCTYPE svg PUBLIC "-//W3C//DTD SVG 1.1//EN" "http://www.w3.org/Graphics/SVG/1.1/DTD/svg11.dtd">
<svg version="1.1"
	 id="svg4123" xmlns:cc="http://web.resource.org/cc/" xmlns:svg="http://www.w3.org/2000/svg" xmlns:ns1="http://sozi.baierouge.fr" xmlns:rdf="http://www.w3.org/1999/02/22-rdf-syntax-ns#" xmlns:inkscape="http://www.inkscape.org/namespaces/inkscape" xmlns:dc="http://purl.org/dc/elements/1.1/" xmlns:sodipodi="http://sodipodi.sourceforge.net/DTD/sodipodi-0.dtd" sodipodi:docbase="/home/marco/Desktop" inkscape:version="0.45.1" inkscape:output_extension="org.inkscape.output.svg.inkscape" sodipodi:version="0.32" sodipodi:docname="disegno.svg"
	 xmlns="http://www.w3.org/2000/svg" xmlns:xlink="http://www.w3.org/1999/xlink" x="0px" y="0px" viewBox="54.3 -13 49 67.6"
	 enable-background="new 54.3 -13 49 67.6" xml:space="preserve">
<sodipodi:namedview  bordercolor="#666666" inkscape:cy="520" id="base" borderopacity="1.0" pagecolor="#ffffff" inkscape:zoom="0.35" inkscape:cx="375" inkscape:document-units="px" inkscape:pageopacity="0.0" inkscape:window-x="4" inkscape:window-width="791" inkscape:window-height="597" inkscape:window-y="45" inkscape:current-layer="layer1" inkscape:pageshadow="2">
	</sodipodi:namedview>
<path fill="#AA2711" d="M95.4,44.9c0.3,0.9,0.4,1.9-0.1,2.6c-0.5,0.7-1.4,1-2.3,1.1c-3.9,0.4-7.6-1.9-10.6-4.4
	C76,39,70.7,32.6,67.1,25.2S61.6,9.6,62,1.4c0.1-2.7,0.5-5.4,1.9-7.7c0.5-0.8,1.1-1.6,2-2c0.9-0.4,2-0.3,2.7,0.3
	c0.6,0.6,0.7,1.5,0.8,2.3c0.8,6.2,1,12.6,2.7,18.6c0.4,1.5,1.2,2.9,1.6,4.4c0.4,1.3,0.6,2.6,1.2,3.8c1.3,2.9,3.2,5.5,5.1,8.1
	c1.5,2.1,3,4.2,4.6,6.3c0.8,1.1,1.6,2.2,2.8,2.8c1,0.6,1.9,1.1,3,1.6c0.8,0.3,1.4,0.8,2.1,1.3C93.9,42.1,94.7,43.4,95.4,44.9z"/>
<path fill="#871802" d="M90.3,44.4c1.9,0.7,3.5,1.1,5.5,1.2c-0.1-1.4-1.2-2.8-2.2-3.7c-1.1-1-2.4-1.8-3.6-2.6
	c-2.6-1.7-5-3.5-6.9-5.9c-1.2-1.5-2.1-3.1-3-4.7c-1.2-2.2-2.5-4.3-3.7-6.5c-1.6-2.8-2.4-5.7-3.6-8.6c-0.6-1.4-1-2.9-1.6-4.3
	c-0.5-1.3-0.3-2.7-0.4-4.2c-0.1-3.5-0.6-6.9-1.5-10.2c-0.2-0.6-0.3-1.3-0.7-1.8s-1-1-1.6-1s-1.3,0.5-1.3,1.2c0,0.4,0.2,0.7,0.2,1
	c0,0.3-0.2,0.6-0.3,0.9c-0.1,0.1-0.1,0.3-0.2,0.4c-0.1,0.4,0.2,1.1,0.6,0.9c-0.1,0.8-1.2,1.2-1.2,2c0,0.4,0.4,0.7,0.6,1
	c0.3,0.3,0.5,0.8,0.3,1.1c0.5-0.3,1-0.3,1.6-0.2c-0.4,0.3-0.5,0.8-0.3,1.3c0.2,0.4,0.7,0.7,1.1,0.6c0,0.6,0.1,1.1-0.2,1.6
	c-0.4,0.6-1,1.2-0.8,1.9c0.3,0,0.6,0,0.9,0c-0.5,1.3-1,2.7-1.6,4c0.9-0.3,1.8-0.6,2.7-0.9c0,0.4,0,0.8-0.2,1.1
	c0.2-0.2,0.5,0,0.5,0.2s-0.1,0.5-0.2,0.7c-0.8,1.3-1.2,2.8-1.1,4.2c0.5-0.6,1.2-1.1,2-1.3c-0.5,1.1-0.8,2.3-0.9,3.6
	c0.6-0.1,1.1-0.2,1.7-0.3c-0.1,1.5-0.3,3-0.4,4.5c0.9-0.5,1.9-1,2.7-1.6c0.3,0.7,0.2,1.5-0.1,2.2c0.7,0.4,1,1.4,0.5,2.1
	c0.4-0.3,0.7,0.5,0.7,1c-0.1,1-0.2,2-0.3,2.9c0.6-0.5,1.4-0.9,2.2-1.2c0.2,1,0.3,2.1,0.3,3.1c0.6,0.1,1.1,0.1,1.7,0.1
	c0,1,0.4,2.3,1.4,2.2c0.5,1.2-0.2,2.8,0.7,3.6c1,0.9,2.8-0.2,4.1,0.4c1.4,0.6,1.2,2.8,2.3,3.8c0.2-0.1,0.4-0.2,0.6-0.3
	c1.1,1.1,1.8,2.5,2,4C89.7,44.2,90,44.3,90.3,44.4z"/>
<path fill="#441107" d="M69.4-3.7c0.1,0.1,0,0.3-0.1,0.4s-0.3,0.1-0.4,0.1c-0.9,0-1.9,0.1-2.8,0.5c-0.4,0.2-0.8,0.4-1.2,0.7
	c-0.7,0.5-1.4,0.9-2.2,1.4c-0.2-0.6,0.1-1.3,0.6-1.7C63.9-2.9,68.8-4.8,69.4-3.7z"/>
<path fill="#441107" d="M70.1,3.2c0.1,0.1,0,0.3-0.1,0.4s-0.3,0.1-0.4,0.1c-0.9,0-1.9,0.1-2.8,0.5c-0.4,0.2-0.8,0.4-1.2,0.7
	c-0.7,0.5-1.4,0.9-2.2,1.4c-0.2-0.6,0.1-1.3,0.6-1.7C64.6,4,69.5,2.1,70.1,3.2z"/>
<path fill="#441107" d="M70.4,9.5c0.1,0.1,0,0.3-0.1,0.4C70.2,10,70,10,69.9,10c-0.9,0.2-1.9,0.6-2.6,1.1c-0.4,0.3-0.7,0.6-1,0.9
	c-0.6,0.6-1.2,1.2-1.8,1.8c-0.3-0.5-0.2-1.2,0.2-1.7C65.2,11.5,69.6,8.6,70.4,9.5z"/>
<path fill="#441107" d="M72.6,16.1c0.1,0.1,0,0.3-0.1,0.4c-0.1,0.1-0.3,0.1-0.4,0.2c-0.9,0.2-1.9,0.6-2.6,1.1
	c-0.4,0.3-0.7,0.6-1,0.9c-0.6,0.6-1.2,1.2-1.8,1.8c-0.3-0.5-0.2-1.2,0.2-1.7C67.4,18.1,71.8,15.1,72.6,16.1z"/>
<path fill="#441107" d="M74.3,21.7c0.1,0.1,0.1,0.3,0.1,0.4c-0.1,0.1-0.2,0.2-0.3,0.3c-0.8,0.5-1.6,1.1-2.1,1.9
	c-0.2,0.4-0.4,0.8-0.6,1.2c-0.4,0.8-0.7,1.5-1.1,2.3c-0.5-0.4-0.6-1.1-0.4-1.7C70.1,25.3,73.3,21.1,74.3,21.7z"/>
<path fill="#441107" d="M78.6,27.9c0.1,0.1,0.1,0.3,0.1,0.4c-0.1,0.1-0.2,0.2-0.3,0.3c-0.8,0.5-1.6,1.1-2.1,1.9
	c-0.2,0.4-0.4,0.8-0.6,1.2c-0.4,0.8-0.7,1.5-1.1,2.3c-0.5-0.4-0.6-1.1-0.4-1.7C74.4,31.4,77.6,27.3,78.6,27.9z"/>
<path fill="#441107" d="M82,33.5c0.1,0,0.2,0.2,0.2,0.4s-0.2,0.2-0.3,0.3c-0.7,0.6-1.3,1.5-1.6,2.3c-0.2,0.4-0.3,0.9-0.4,1.3
	c-0.2,0.8-0.4,1.7-0.6,2.5c-0.6-0.3-0.8-1-0.7-1.6C78.6,37.9,80.8,33.1,82,33.5z"/>
<path fill="#441107" d="M86.7,37.4c0.1,0,0.2,0.2,0.2,0.4s-0.2,0.2-0.3,0.3c-0.7,0.6-1.3,1.5-1.6,2.3c-0.2,0.4-0.3,0.9-0.4,1.3
	c-0.2,0.8-0.4,1.7-0.6,2.5c-0.6-0.3-0.8-1-0.7-1.6C83.4,41.8,85.6,37,86.7,37.4z"/>
<path fill="#441107" d="M91.7,40.8c0.1,0,0.2,0.2,0.2,0.4s-0.2,0.2-0.3,0.3c-0.7,0.6-1.3,1.5-1.6,2.3c-0.2,0.4-0.3,0.9-0.4,1.3
	c-0.2,0.8-0.4,1.7-0.6,2.5c-0.6-0.3-0.8-1-0.7-1.6C88.3,45.2,90.5,40.4,91.7,40.8z"/>
</svg>
