<?xml version="1.0" encoding="utf-8"?>
<!-- Generator: Adobe Illustrator 15.0.0, SVG Export Plug-In . SVG Version: 6.00 Build 0)  -->
<!DOCTYPE svg PUBLIC "-//W3C//DTD SVG 1.1//EN" "http://www.w3.org/Graphics/SVG/1.1/DTD/svg11.dtd">
<svg version="1.1"
	 id="svg4123" sodipodi:docname="disegno.svg" sodipodi:version="0.32" inkscape:output_extension="org.inkscape.output.svg.inkscape" sodipodi:docbase="/home/marco/Desktop" inkscape:version="0.45.1" xmlns:ns1="http://sozi.baierouge.fr" xmlns:svg="http://www.w3.org/2000/svg" xmlns:sodipodi="http://sodipodi.sourceforge.net/DTD/sodipodi-0.dtd" xmlns:dc="http://purl.org/dc/elements/1.1/" xmlns:cc="http://web.resource.org/cc/" xmlns:rdf="http://www.w3.org/1999/02/22-rdf-syntax-ns#" xmlns:inkscape="http://www.inkscape.org/namespaces/inkscape"
	 xmlns="http://www.w3.org/2000/svg" xmlns:xlink="http://www.w3.org/1999/xlink" x="0px" y="0px" width="595.279px"
	 height="841.891px" viewBox="0 0 595.279 841.891" enable-background="new 0 0 595.279 841.891" xml:space="preserve">
<sodipodi:namedview  inkscape:current-layer="layer1" inkscape:zoom="0.35" inkscape:window-height="597" id="base" inkscape:window-width="791" inkscape:document-units="px" pagecolor="#ffffff" inkscape:cx="375" inkscape:window-y="45" bordercolor="#666666" borderopacity="1.0" inkscape:window-x="4" inkscape:pageshadow="2" inkscape:pageopacity="0.0" inkscape:cy="520">
	</sodipodi:namedview>
<g>
	<path fill="#BB5326" d="M536.297,549.58c11.737,21.716-11.902,58.072-53.541,69.497C262.448,660.205,83.318,532.414,50.532,310.701
		c-2.744-43.094,23.95-77.268,48.3-73.238c24.362,4.039,38.99,35.028,41.023,66.91c50.816,170.829,141.968,228.514,319.817,228.192
		C490.484,524.103,524.55,527.858,536.297,549.58"/>
	<path fill="#E0663B" d="M98.38,243.268c0,0,35.134-33.018,23.42-38.924c-11.711-5.911-14.953,0.356-19.013-2.54
		c-4.063-2.9-11.599-9.504-18.434-3.351c-6.835,6.146-8.105,11.36-15.53,9.743c-7.418-1.625-20.165-0.924-16.105,10.55
		c4.069,11.481,30.974,35.575,30.974,35.575"/>
	<path fill="#E0663B" d="M529.969,556.089c0,0,19.8-43.971,29.196-34.814c9.395,9.155,4.524,14.259,8.588,17.157
		c4.056,2.894,12.76,7.868,9.165,16.333c-3.595,8.466-8.104,11.36-4.169,17.852c3.952,6.499,7.442,18.783-4.737,18.679
		c-12.169-0.116-43.719-17.717-43.719-17.717"/>
	<path fill="#E0663B" d="M86.364,285.885c-32.893,26.25-5.215,88.141,8.269,117.843c20.61,45.358,53.53,86.442,91.038,118.843
		c47.058,40.682,100.989,62.964,162.008,72.801c32.012,5.176,64.1,5.167,96.397,3.944c21.562-0.816,50.551-2.735,57.535-27.283
		c1.261-4.426,0.017-8.058-3.429-11.037c-15.81-13.631-36.947-6.779-55.698-4.264c-26.752,3.617-54.78-1.483-81.119-5.992
		c-51.77-8.889-96.901-31.147-136.645-65.196c-30.867-26.431-57.151-61.565-77.412-96.55
		c-10.542-18.224-19.708-36.698-26.384-56.699c-5.023-14.995-6.492-32.365-17.193-44.614
		C99.278,282.591,91.762,281.578,86.364,285.885"/>
	<path fill="#BB5326" d="M92.437,241.191c31.359,19.254,36.57,43.864,43.907,77.692c5.289,24.398,14.192,47.594,25.481,69.818
		c22.764,44.843,57.44,81.461,99.796,108.208c40.901,25.788,89.02,37.978,136.643,42.863c36.975,3.8,128.009-21.822,134.382,31.949
		c0.579,5.03,8.371,4.637,8.745-0.327c3.164-41.611-28.727-50.119-65.022-49.906c-62.521,0.357-121.183-2.261-178.992-29.201
		c-63.423-29.591-104.847-87.634-131.099-150.537c-13.392-32.109-24.776-109.641-73.131-103.586
		C91.727,238.328,91.193,240.425,92.437,241.191"/>
	<path fill="#BB5326" d="M117.822,216.399c-7.858,7.061-18.638,10.645-25.613,18.885c-3.457,4.075,1.856,9.495,6.259,7.64
		c10.96-4.601,16.578-15.003,21.337-25.111C120.344,216.675,118.724,215.594,117.822,216.399"/>
	<path fill="#BB5326" d="M546.866,524.392c-6.963,5.093-10.022,10.228-12.286,18.64c-2.096,7.811-3.633,16.743-1.171,24.566
		c0.487,1.508,2.515,2.955,4.082,2.911c9.152-0.205,4.83-16.355,5.023-21.142c0.309-7.979,3.492-16.28,6.104-23.727
		C548.998,524.564,547.746,523.735,546.866,524.392"/>
	<path fill="#E0663B" d="M373.936,561.174c5.873-12.165,10.356-28.709-1.352-39.214c-3.982-3.574-9.42,1.163-8.913,5.561
		c0.604,5.261,2.835,10.675,4,15.896c1.159,5.249,1.281,11.162,0.432,16.44C367.519,563.481,372.546,564.037,373.936,561.174"/>
	<path fill="#E0663B" d="M102.379,312.602c8.029-1.32,15.395-2.878,23.584-1.566c6.875,1.104,13.38,8.712,20.288,7.447
		c0.534-0.101,1.166-0.511,1.3-1.082c2.117-8.866-9.85-12.04-16.361-13.251c-9.632-1.781-22.261-0.383-29.884,6.096
		C100.299,311.105,101.05,312.816,102.379,312.602"/>
	<path fill="#E0663B" d="M196.065,477.914c5.982-5.258,12.562-9.396,19.76-12.798c4.816-2.256,10.868-3.03,11.682-9.005
		c0.153-1.198-0.646-2.128-1.646-2.596c-5.824-2.774-11.419,3.879-15.581,7.295c-5.736,4.728-11.269,9.68-16.027,15.396
		C193.323,477.309,195.001,478.853,196.065,477.914"/>
	<path fill="#F4E73B" d="M97.767,262.319c20.516,6.894,26.863,15.685,23.22,36.403c-2.006,11.416-3.937,20.602-7.921,31.468
		c-4.194,11.458,6.533,22.465,13.396,29.919c8.677,9.433,25.588,9.024,29.135,20.815c5.478,18.178-11.26,30.623-4.596,47.578
		c4.766,12.151,13.467,20.229,26.663,22.363c18.265,2.941,40.025-1.422,49.908,18.116c6.621,13.103,3.111,29.425,7.169,43.303
		c7.03,23.909,37.686,29.039,56.42,16.843c10.507-6.841,25.67-15.844,33.168,1.123c3.451,7.781,3.829,16.015,8.198,23.475
		c6.363,10.873,21.316,12.95,32.619,11.246c15.673-2.393,27.097-14.359,43.736-14.065c23.096,0.403,12.221,20.665,26.87,27.456
		c8.909,4.125,27.518,5.234,34.304-3.958c6.535-8.876,9.159-17.424,19.762-23.504c12.802-7.34,21.125-8.39,34.794-2.004
		c3.009,1.403,5.505-2.716,3.618-5.069c-19.179-23.945-55.85-7.062-65.003,18.146c-5.161,4.871-11.021,6.943-17.565,6.228
		c-6.324,0.099-6.207-5.853-7.191-9.961c-1.013-4.276-3.321-9.783-7.229-12.287c-12.635-8.097-26.901-8.176-40.799-3.754
		c-16.447,5.222-42.751,24.991-51.149-2.981c-4.099-13.693-7.142-27.577-22.895-31.4c-13.255-3.217-24.548,6.879-34.943,13.265
		c-10.085,6.193-27.524,0.433-33.079-9.704c-3.316-6.056-2.975-14.44-3.327-21.119c-1.661-32.059-16.227-49.52-48.894-51.442
		c-7.983-0.469-15.661-0.777-23.3-3.434c-17.736-6.174-9.21-24.416-5.503-36.604c2.355-7.788-1.218-29.095-8.939-34.424
		c-2.345-1.62-4.492-2.289-7.291-2.796c-11.782-2.113-18.577-10.868-24.175-21.008c-3.438-6.242,2.126-11.934,4.65-17.467
		c2.537-5.567,2.235-11.841,2.978-17.751c1.289-10.185,4.627-19.828,1.438-30.069c-4.786-15.326-18.775-22.38-33.542-25.813
		C94.14,247.512,89.165,259.422,97.767,262.319"/>
</g>
</svg>
