<?xml version="1.0" encoding="utf-8"?>
<!-- Generator: Adobe Illustrator 15.0.0, SVG Export Plug-In . SVG Version: 6.00 Build 0)  -->
<!DOCTYPE svg PUBLIC "-//W3C//DTD SVG 1.1//EN" "http://www.w3.org/Graphics/SVG/1.1/DTD/svg11.dtd">
<svg version="1.1"
	 id="svg4123" sodipodi:docname="disegno.svg" sodipodi:version="0.32" inkscape:output_extension="org.inkscape.output.svg.inkscape" sodipodi:docbase="/home/marco/Desktop" inkscape:version="0.45.1" xmlns:ns1="http://sozi.baierouge.fr" xmlns:svg="http://www.w3.org/2000/svg" xmlns:sodipodi="http://sodipodi.sourceforge.net/DTD/sodipodi-0.dtd" xmlns:dc="http://purl.org/dc/elements/1.1/" xmlns:cc="http://web.resource.org/cc/" xmlns:rdf="http://www.w3.org/1999/02/22-rdf-syntax-ns#" xmlns:inkscape="http://www.inkscape.org/namespaces/inkscape"
	 xmlns="http://www.w3.org/2000/svg" xmlns:xlink="http://www.w3.org/1999/xlink" x="0px" y="0px" width="595.279px"
	 height="841.891px" viewBox="0 0 595.279 841.891" enable-background="new 0 0 595.279 841.891" xml:space="preserve">
<sodipodi:namedview  inkscape:current-layer="layer1" inkscape:zoom="0.35" inkscape:window-height="597" id="base" inkscape:window-width="791" inkscape:document-units="px" pagecolor="#ffffff" inkscape:cx="375" inkscape:window-y="45" bordercolor="#666666" borderopacity="1.0" inkscape:window-x="4" inkscape:pageshadow="2" inkscape:pageopacity="0.0" inkscape:cy="520">
	</sodipodi:namedview>
<g>
	<path fill="#EFC8BB" d="M540.21,547.595c11.686,21.928-12.417,58.945-54.499,70.82C263.192,661.659,83.405,533.4,51.903,308.908
		c-2.463-43.66,24.705-78.487,49.239-74.574c24.545,3.922,39.082,35.229,40.907,67.529
		c50.051,172.79,141.588,230.613,320.99,229.029C494.178,522.096,528.514,525.661,540.21,547.595"/>
	<path fill="#F9E3DC" d="M86.364,285.885c-32.893,26.25-5.215,88.141,8.269,117.843c20.61,45.358,53.53,86.442,91.038,118.843
		c47.058,40.682,100.989,62.964,162.008,72.801c32.012,5.176,64.1,5.167,96.397,3.944c21.562-0.816,50.551-2.735,57.535-27.283
		c1.261-4.426,0.017-8.058-3.429-11.037c-15.81-13.631-36.947-6.779-55.698-4.264c-26.752,3.617-54.78-1.483-81.119-5.992
		c-51.77-8.889-96.901-31.147-136.645-65.196c-30.867-26.431-57.151-61.565-77.412-96.55
		c-10.542-18.224-19.708-36.698-26.384-56.699c-5.023-14.995-6.492-32.365-17.193-44.614
		C99.278,282.591,91.762,281.578,86.364,285.885"/>
	<path fill="#EFC8BB" d="M92.437,241.191c31.359,19.254,36.57,43.864,43.907,77.692c5.289,24.398,14.192,47.594,25.481,69.818
		c22.764,44.843,57.44,81.461,99.796,108.208c40.901,25.788,89.02,37.978,136.643,42.863c36.975,3.8,128.009-21.822,134.382,31.949
		c0.579,5.03,8.371,4.637,8.745-0.327c3.164-41.611-28.727-50.119-65.022-49.906c-62.521,0.357-121.183-2.261-178.992-29.201
		c-63.423-29.591-104.847-87.634-131.099-150.537c-13.392-32.109-24.776-109.641-73.131-103.586
		C91.727,238.328,91.193,240.425,92.437,241.191"/>
	<path fill="#F9E3DC" d="M373.936,561.174c5.873-12.165,10.356-28.709-1.352-39.214c-3.982-3.574-9.42,1.163-8.913,5.561
		c0.604,5.261,2.835,10.675,4,15.896c1.159,5.249,1.281,11.162,0.432,16.44C367.519,563.481,372.546,564.037,373.936,561.174"/>
	<path fill="#F9E3DC" d="M102.379,312.602c8.029-1.32,15.395-2.878,23.584-1.566c6.875,1.104,13.38,8.712,20.288,7.447
		c0.534-0.101,1.166-0.511,1.3-1.082c2.117-8.866-9.85-12.04-16.361-13.251c-9.632-1.781-22.261-0.383-29.884,6.096
		C100.299,311.105,101.05,312.816,102.379,312.602"/>
	<path fill="#F9E3DC" d="M196.065,477.914c5.982-5.258,12.562-9.396,19.76-12.798c4.816-2.256,10.868-3.03,11.682-9.005
		c0.153-1.198-0.646-2.128-1.646-2.596c-5.824-2.774-11.419,3.879-15.581,7.295c-5.736,4.728-11.269,9.68-16.027,15.396
		C193.323,477.309,195.001,478.853,196.065,477.914"/>
	<g>
		<path fill="#F7F1E7" d="M506.403,548.546c0.029-0.804,1.007-1.428,2.176-1.385l2.395,0.089c1.17,0.043,2.098,0.738,2.067,1.541
			c-0.029,0.795-1.005,1.42-2.175,1.377l-2.396-0.089C507.301,550.036,506.373,549.341,506.403,548.546"/>
		<path fill="#F7F1E7" d="M465.232,545.566c0.029-0.803,1.012-1.42,2.182-1.377l2.388,0.088c1.17,0.044,2.099,0.731,2.068,1.534
			c-0.029,0.803-1.006,1.421-2.176,1.378l-2.388-0.089C466.136,547.058,465.201,546.369,465.232,545.566"/>
		<path fill="#F7F1E7" d="M487.598,534.909c0.029-0.802,1.013-1.42,2.182-1.376l2.388,0.088c1.177,0.043,2.098,0.731,2.068,1.533
			c-0.03,0.804-1,1.421-2.176,1.378l-2.388-0.088C488.503,536.4,487.568,535.712,487.598,534.909"/>
		<path fill="#F7F1E7" d="M441.269,539.872c0.03-0.803,1.014-1.42,2.184-1.377l2.387,0.088c1.171,0.044,2.099,0.731,2.069,1.535
			c-0.03,0.802-1.007,1.42-2.177,1.376l-2.387-0.088C442.175,541.363,441.24,540.675,441.269,539.872"/>
	</g>
	<g>
		<path fill="#F7F1E7" d="M134.112,317.592c0.727-0.345,1.731,0.235,2.232,1.292l1.025,2.166c0.501,1.058,0.312,2.202-0.414,2.545
			c-0.719,0.341-1.723-0.237-2.225-1.295l-1.026-2.167C133.204,319.076,133.393,317.933,134.112,317.592"/>
		<path fill="#F7F1E7" d="M117.77,279.686c0.726-0.344,1.727,0.243,2.228,1.301l1.023,2.159c0.5,1.058,0.319,2.199-0.407,2.542
			c-0.726,0.344-1.725-0.237-2.226-1.295l-1.022-2.16C116.865,281.176,117.044,280.029,117.77,279.686"/>
		<path fill="#F7F1E7" d="M137.541,294.618c0.725-0.344,1.727,0.244,2.227,1.301l1.023,2.159c0.504,1.064,0.318,2.199-0.407,2.542
			c-0.727,0.344-1.722-0.232-2.226-1.295l-1.023-2.159C136.635,296.108,136.815,294.961,137.541,294.618"/>
		<path fill="#F7F1E7" d="M111.773,255.797c0.726-0.343,1.727,0.245,2.229,1.303l1.023,2.158c0.501,1.06,0.318,2.2-0.408,2.544
			c-0.725,0.343-1.724-0.238-2.225-1.297l-1.022-2.158C110.868,257.289,111.047,256.141,111.773,255.797"/>
	</g>
	<g>
		<path fill="#F7F1E7" d="M102.906,333.657c-0.755,0.276-1.701-0.395-2.102-1.493l-0.82-2.251c-0.401-1.1-0.106-2.222,0.648-2.496
			c0.748-0.273,1.694,0.396,2.095,1.495l0.821,2.253C103.948,332.263,103.654,333.384,102.906,333.657"/>
		<path fill="#F7F1E7" d="M115.666,372.914c-0.754,0.275-1.696-0.402-2.098-1.501l-0.818-2.246c-0.4-1.1-0.114-2.219,0.641-2.493
			c0.755-0.276,1.695,0.396,2.096,1.496l0.818,2.245C116.706,371.515,116.421,372.639,115.666,372.914"/>
		<path fill="#F7F1E7" d="M97.365,356.215c-0.754,0.275-1.697-0.403-2.097-1.502l-0.818-2.245c-0.404-1.106-0.113-2.219,0.64-2.494
			c0.755-0.275,1.692,0.391,2.097,1.497l0.818,2.245C98.404,354.814,98.119,355.94,97.365,356.215"/>
		<path fill="#F7F1E7" d="M119.424,397.256c-0.755,0.275-1.697-0.403-2.098-1.503l-0.818-2.244c-0.401-1.102-0.113-2.22,0.642-2.496
			c0.753-0.274,1.694,0.397,2.095,1.498l0.818,2.244C120.463,395.854,120.178,396.981,119.424,397.256"/>
	</g>
</g>
</svg>
