<?xml version="1.0" encoding="utf-8"?>
<!-- Generator: Adobe Illustrator 18.1.1, SVG Export Plug-In . SVG Version: 6.00 Build 0)  -->
<!DOCTYPE svg PUBLIC "-//W3C//DTD SVG 1.1//EN" "http://www.w3.org/Graphics/SVG/1.1/DTD/svg11.dtd">
<svg version="1.1"
	 id="svg4123" xmlns:cc="http://web.resource.org/cc/" xmlns:svg="http://www.w3.org/2000/svg" xmlns:ns1="http://sozi.baierouge.fr" xmlns:rdf="http://www.w3.org/1999/02/22-rdf-syntax-ns#" xmlns:inkscape="http://www.inkscape.org/namespaces/inkscape" xmlns:dc="http://purl.org/dc/elements/1.1/" xmlns:sodipodi="http://sodipodi.sourceforge.net/DTD/sodipodi-0.dtd" sodipodi:docbase="/home/marco/Desktop" inkscape:version="0.45.1" inkscape:output_extension="org.inkscape.output.svg.inkscape" sodipodi:version="0.32" sodipodi:docname="disegno.svg"
	 xmlns="http://www.w3.org/2000/svg" xmlns:xlink="http://www.w3.org/1999/xlink" x="0px" y="0px" viewBox="170 -242.5 595.3 571"
	 enable-background="new 170 -242.5 595.3 571" xml:space="preserve">
<sodipodi:namedview  bordercolor="#666666" inkscape:cy="520" id="base" borderopacity="1.0" pagecolor="#ffffff" inkscape:zoom="0.35" inkscape:cx="375" inkscape:document-units="px" inkscape:pageopacity="0.0" inkscape:window-x="4" inkscape:window-width="791" inkscape:window-height="597" inkscape:window-y="45" inkscape:current-layer="layer1" inkscape:pageshadow="2">
	</sodipodi:namedview>
<g>
	<path fill="#EFC8BB" d="M710.2,150.9c11.7,21.9-12.4,58.9-54.5,70.8c-222.5,43.2-402.3-85-433.8-309.5
		c-2.5-43.7,24.7-78.5,49.2-74.6c24.5,3.9,39.1,35.2,40.9,67.5c50.1,172.8,141.6,230.6,321,229C664.2,125.4,698.5,129,710.2,150.9"
		/>
	<path fill="#F9E3DC" d="M256.4-110.8c-32.9,26.2-5.2,88.1,8.3,117.8c20.6,45.4,53.5,86.4,91,118.8c47.1,40.7,101,63,162,72.8
		c32,5.2,64.1,5.2,96.4,3.9c21.6-0.8,50.6-2.7,57.5-27.3c1.3-4.4,0-8.1-3.4-11c-15.8-13.6-36.9-6.8-55.7-4.3
		c-26.8,3.6-54.8-1.5-81.1-6c-51.8-8.9-96.9-31.1-136.6-65.2c-30.9-26.4-57.2-61.6-77.4-96.5c-10.5-18.2-19.7-36.7-26.4-56.7
		c-5-15-6.5-32.4-17.2-44.6C269.3-114.1,261.8-115.1,256.4-110.8"/>
	<path fill="#EFC8BB" d="M262.4-155.5c31.4,19.3,36.6,43.9,43.9,77.7c5.3,24.4,14.2,47.6,25.5,69.8c22.8,44.8,57.4,81.5,99.8,108.2
		c40.9,25.8,89,38,136.6,42.9c37,3.8,128-21.8,134.4,31.9c0.6,5,8.4,4.6,8.7-0.3c3.2-41.6-28.7-50.1-65-49.9
		c-62.5,0.4-121.2-2.3-179-29.2C404,66,362.5,8,336.3-55c-13.4-32.1-24.8-109.6-73.1-103.6C261.7-158.4,261.2-156.3,262.4-155.5"/>
	<path fill="#F9E3DC" d="M543.9,164.5c5.9-12.2,10.4-28.7-1.4-39.2c-4-3.6-9.4,1.2-8.9,5.6c0.6,5.3,2.8,10.7,4,15.9
		c1.2,5.2,1.3,11.2,0.4,16.4C537.5,166.8,542.5,167.3,543.9,164.5"/>
	<path fill="#F9E3DC" d="M272.4-84.1c8-1.3,15.4-2.9,23.6-1.6c6.9,1.1,13.4,8.7,20.3,7.4c0.5-0.1,1.2-0.5,1.3-1.1
		c2.1-8.9-9.9-12-16.4-13.3c-9.6-1.8-22.3-0.4-29.9,6.1C270.3-85.6,271-83.9,272.4-84.1"/>
	<path fill="#F9E3DC" d="M366.1,81.2c6-5.3,12.6-9.4,19.8-12.8c4.8-2.3,10.9-3,11.7-9c0.2-1.2-0.6-2.1-1.6-2.6
		c-5.8-2.8-11.4,3.9-15.6,7.3c-5.7,4.7-11.3,9.7-16,15.4C363.3,80.6,365,82.2,366.1,81.2"/>
	<g>
		<path fill="#F7F1E7" d="M676.4,151.8c0-0.8,1-1.4,2.2-1.4l2.4,0.1c1.2,0,2.1,0.7,2.1,1.5c0,0.8-1,1.4-2.2,1.4l-2.4-0.1
			C677.3,153.3,676.4,152.6,676.4,151.8"/>
		<path fill="#F7F1E7" d="M635.2,148.9c0-0.8,1-1.4,2.2-1.4l2.4,0.1c1.2,0,2.1,0.7,2.1,1.5c0,0.8-1,1.4-2.2,1.4l-2.4-0.1
			C636.1,150.4,635.2,149.7,635.2,148.9"/>
		<path fill="#F7F1E7" d="M657.6,138.2c0-0.8,1-1.4,2.2-1.4l2.4,0.1c1.2,0,2.1,0.7,2.1,1.5c0,0.8-1,1.4-2.2,1.4l-2.4-0.1
			C658.5,139.7,657.6,139,657.6,138.2"/>
		<path fill="#F7F1E7" d="M611.3,143.2c0-0.8,1-1.4,2.2-1.4l2.4,0.1c1.2,0,2.1,0.7,2.1,1.5c0,0.8-1,1.4-2.2,1.4l-2.4-0.1
			C612.2,144.7,611.2,144,611.3,143.2"/>
	</g>
	<g>
		<path fill="#F7F1E7" d="M304.1-79.1c0.7-0.3,1.7,0.2,2.2,1.3l1,2.2c0.5,1.1,0.3,2.2-0.4,2.5c-0.7,0.3-1.7-0.2-2.2-1.3l-1-2.2
			C303.2-77.6,303.4-78.8,304.1-79.1"/>
		<path fill="#F7F1E7" d="M287.8-117c0.7-0.3,1.7,0.2,2.2,1.3l1,2.2c0.5,1.1,0.3,2.2-0.4,2.5c-0.7,0.3-1.7-0.2-2.2-1.3l-1-2.2
			C286.9-115.5,287-116.7,287.8-117"/>
		<path fill="#F7F1E7" d="M307.5-102.1c0.7-0.3,1.7,0.2,2.2,1.3l1,2.2c0.5,1.1,0.3,2.2-0.4,2.5c-0.7,0.3-1.7-0.2-2.2-1.3l-1-2.2
			C306.6-100.6,306.8-101.7,307.5-102.1"/>
		<path fill="#F7F1E7" d="M281.8-140.9c0.7-0.3,1.7,0.2,2.2,1.3l1,2.2c0.5,1.1,0.3,2.2-0.4,2.5c-0.7,0.3-1.7-0.2-2.2-1.3l-1-2.2
			C280.9-139.4,281-140.6,281.8-140.9"/>
	</g>
	<g>
		<path fill="#F7F1E7" d="M272.9-63c-0.8,0.3-1.7-0.4-2.1-1.5l-0.8-2.3c-0.4-1.1-0.1-2.2,0.6-2.5c0.7-0.3,1.7,0.4,2.1,1.5l0.8,2.3
			C273.9-64.4,273.7-63.3,272.9-63"/>
		<path fill="#F7F1E7" d="M285.7-23.8c-0.8,0.3-1.7-0.4-2.1-1.5l-0.8-2.2c-0.4-1.1-0.1-2.2,0.6-2.5c0.8-0.3,1.7,0.4,2.1,1.5l0.8,2.2
			C286.7-25.2,286.4-24.1,285.7-23.8"/>
		<path fill="#F7F1E7" d="M267.4-40.5c-0.8,0.3-1.7-0.4-2.1-1.5l-0.8-2.2c-0.4-1.1-0.1-2.2,0.6-2.5c0.8-0.3,1.7,0.4,2.1,1.5L268-43
			C268.4-41.9,268.1-40.8,267.4-40.5"/>
		<path fill="#F7F1E7" d="M289.4,0.6c-0.8,0.3-1.7-0.4-2.1-1.5l-0.8-2.2c-0.4-1.1-0.1-2.2,0.6-2.5c0.8-0.3,1.7,0.4,2.1,1.5l0.8,2.2
			C290.5-0.8,290.2,0.3,289.4,0.6"/>
	</g>
</g>
<path fill="#9B7640" d="M254.3-53.1c-2.8,3-6.2,5.4-8.9,8.5c-3.1,3.6-5.3,8.1-6.2,12.8c-3.9-4.4-4.6-11-3-16.6s5.3-10.5,9.4-14.7
	c5.3-5.6,11.4-10.5,17.6-15.1c7.5-5.6,15.3-11,24.2-14s19.1-3,27.2,1.7c-20,2.9-39.8,11.6-52.4,27.4
	C259.5-59.7,257.2-56.1,254.3-53.1z"/>
<path fill="#9B7640" d="M286.2,23.1c-2.2,3.5-5,6.6-7,10.2c-2.3,4.2-3.5,9-3.4,13.8c-4.7-3.5-6.8-9.8-6.4-15.7
	c0.4-5.9,3-11.4,6.1-16.4c4.1-6.6,9-12.6,14.1-18.5c6.1-7.1,12.7-14,20.7-18.7c8.1-4.7,18-6.9,26.9-4c-19,7-36.5,19.7-45.5,37.8
	C290,15.5,288.4,19.5,286.2,23.1z"/>
<path fill="#9B7640" d="M331.8,88.4c-1.9,3.7-4.5,7-6.2,10.7c-2,4.3-2.8,9.2-2.3,14c-5-3.1-7.5-9.3-7.5-15.1
	c0-5.9,2.2-11.6,4.9-16.8c3.6-6.9,8-13.3,12.7-19.5c5.6-7.5,11.6-14.9,19.3-20.2s17.5-8.3,26.5-6c-18.4,8.4-35,22.3-42.6,41
	C335,80.5,333.8,84.6,331.8,88.4z"/>
<path fill="#9B7640" d="M403.8,148.2c-1.5,3.9-3.7,7.4-5,11.3c-1.5,4.5-1.8,9.5-0.8,14.2c-5.3-2.5-8.5-8.4-9.1-14.2
	c-0.6-5.8,0.9-11.7,3-17.2c2.8-7.2,6.5-14.1,10.5-20.8c4.7-8.1,9.9-16.1,16.9-22.2c7.1-6.1,16.4-10.1,25.7-8.9
	c-17.3,10.4-32.3,26.1-37.8,45.5C406.1,140,405.4,144.2,403.8,148.2z"/>
<path fill="#9B7640" d="M500.2,187.8c-0.6,4.1-2,8-2.5,12.1c-0.5,4.8,0.2,9.7,2.2,14c-5.7-1.4-10-6.4-11.9-12
	c-1.9-5.6-1.6-11.7-0.6-17.5c1.2-7.7,3.4-15.1,5.9-22.5c3-8.9,6.3-17.8,11.9-25.2c5.6-7.4,14-13.3,23.3-14.1
	c-14.8,13.7-26.1,32.2-27.5,52.4C500.7,179.3,500.9,183.6,500.2,187.8z"/>
<path fill="#9B7640" d="M603,203.6c0.3,4.1-0.2,8.3,0.3,12.4c0.5,4.8,2.4,9.4,5.2,13.2c-5.9-0.1-11.2-4-14.3-9.1
	c-3-5-4.1-11-4.5-16.9c-0.5-7.7,0-15.5,0.8-23.2c0.9-9.3,2.2-18.7,6.1-27.2c3.9-8.5,10.7-16.1,19.6-18.9
	c-11.4,16.7-18.4,37.2-15.2,57.2C601.6,195.2,602.7,199.4,603,203.6z"/>
</svg>
